<svg width="145" height="29" viewBox="0 0 145 29" fill="none" xmlns="http://www.w3.org/2000/svg">
<path d="M7.492 18.796L10.224 11.098H10.284L12.928 18.798L7.492 18.796ZM10.224 0L0 26.905H4.642L6.287 22.233H14.132L15.724 26.905H20.513L10.284 0H10.224ZM35.224 12.978H39.69C39.5778 11.8443 39.2376 10.745 38.69 9.746C38.183 8.83163 37.4986 8.0276 36.677 7.381C35.8523 6.73778 34.9202 6.24553 33.924 5.927C32.8651 5.58912 31.7595 5.42038 30.648 5.427C29.1595 5.40352 27.6828 5.69382 26.314 6.279C25.0731 6.81646 23.9649 7.61889 23.067 8.63C22.1693 9.65726 21.4807 10.8499 21.04 12.141C20.5597 13.545 20.3214 15.0202 20.335 16.504C20.3228 17.9589 20.5613 19.4051 21.04 20.779C21.4813 22.0522 22.1702 23.2254 23.067 24.231C23.9698 25.2254 25.0776 26.0122 26.314 26.537C27.6853 27.1126 29.161 27.3976 30.648 27.374C31.8583 27.3877 33.0616 27.1887 34.203 26.786C35.2481 26.4149 36.2076 25.8367 37.024 25.086C37.8414 24.3221 38.5003 23.4046 38.963 22.386C39.4698 21.2625 39.778 20.0597 39.874 18.831H35.405C35.2934 20.0923 34.7843 21.2856 33.951 22.239C33.5251 22.679 33.0095 23.0222 32.4393 23.2453C31.869 23.4684 31.2574 23.5662 30.646 23.532C29.7279 23.5608 28.8177 23.3542 28.002 22.932C27.2951 22.547 26.6906 21.9983 26.239 21.332C25.7802 20.647 25.447 19.8858 25.255 19.084C25.0481 18.2427 24.9443 17.3794 24.946 16.513C24.9438 15.6126 25.0475 14.7151 25.255 13.839C25.4432 13.0179 25.7764 12.237 26.239 11.533C26.6871 10.8595 27.2921 10.3049 28.002 9.917C28.8177 9.49478 29.7279 9.28823 30.646 9.317C31.2017 9.31489 31.7536 9.40929 32.277 9.596C32.7845 9.7744 33.2579 10.0378 33.677 10.375C34.0824 10.7016 34.4299 11.094 34.705 11.536C34.975 11.976 35.1516 12.4668 35.224 12.978ZM41.924 5.926V26.905H46.243V12.185H46.302L51.444 26.905H54.999L60.144 12.038H60.203V26.905H64.524V5.927H58.024L53.387 20.348H53.324L48.424 5.927L41.924 5.926ZM67.486 5.926V26.905H83.415V23.027H72.103V17.885H82.269V14.3H72.103V9.8H83.18V5.922L67.486 5.926Z" fill="white"/>
<path d="M93.7411 15.2173V15.9312H92.1307C92.2912 16.158 92.4213 16.4181 92.5209 16.7114C92.626 16.9992 92.6786 17.2842 92.6786 17.5664C92.6786 18.0091 92.5817 18.4103 92.3881 18.77C92.1944 19.1297 91.9232 19.4396 91.5746 19.6997C91.2315 19.9598 90.8192 20.1618 90.3378 20.3057C89.8563 20.444 89.3251 20.5132 88.744 20.5132C88.5282 20.5132 88.3068 20.4966 88.08 20.4634C87.8586 20.4302 87.6649 20.3859 87.4989 20.3306C87.3384 20.4634 87.2028 20.6183 87.0922 20.7954C86.9815 20.967 86.9261 21.1413 86.9261 21.3184C86.9261 21.4899 87.0175 21.6255 87.2001 21.7251C87.3882 21.8247 87.6538 21.8828 87.9969 21.8994L91.1346 22.0405C91.6382 22.0627 92.056 22.1235 92.3881 22.2231C92.7256 22.3172 92.994 22.4473 93.1932 22.6133C93.3925 22.7738 93.5336 22.9647 93.6166 23.186C93.6996 23.4074 93.7411 23.6564 93.7411 23.9331C93.7411 24.4256 93.6249 24.8711 93.3925 25.2695C93.1656 25.6735 92.8363 26.0166 92.4047 26.2988C91.973 26.5811 91.4445 26.7996 90.8192 26.9546C90.1994 27.1095 89.4966 27.187 88.7108 27.187C88.008 27.187 87.3938 27.1455 86.868 27.0625C86.3423 26.9795 85.9052 26.8605 85.5565 26.7056C85.2079 26.5562 84.9478 26.3735 84.7762 26.1577C84.6047 25.9474 84.5189 25.7095 84.5189 25.4438C84.5189 25.2114 84.577 24.9873 84.6932 24.7715C84.8094 24.5612 84.9589 24.3564 85.1415 24.1572C85.3241 23.9635 85.5261 23.7754 85.7474 23.5928C85.9688 23.4102 86.1874 23.2358 86.4032 23.0698C86.2483 23.02 86.1016 22.9619 85.9633 22.8955C85.8304 22.8236 85.7142 22.7433 85.6146 22.6548C85.515 22.5662 85.4375 22.4722 85.3822 22.3726C85.3269 22.2674 85.2992 22.1567 85.2992 22.0405C85.2992 21.869 85.3435 21.6919 85.432 21.5093C85.5261 21.3211 85.6506 21.144 85.8055 20.978C85.966 20.8065 86.1486 20.6515 86.3534 20.5132C86.5637 20.3693 86.7878 20.2559 87.0258 20.1729C86.4558 19.9294 86.0075 19.5918 85.681 19.1602C85.3601 18.723 85.1996 18.2222 85.1996 17.6577C85.1996 17.2427 85.2937 16.8498 85.4818 16.479C85.6755 16.1082 85.9411 15.7845 86.2787 15.5078C86.6163 15.2311 87.0092 15.0125 87.4574 14.8521C87.9112 14.6916 88.4009 14.6113 88.9266 14.6113C89.1812 14.6113 89.4302 14.6279 89.6737 14.6611C89.9227 14.6943 90.1524 14.7386 90.3627 14.7939C90.5785 14.8493 90.7666 14.9129 90.9271 14.9849C91.0931 15.0568 91.2232 15.1343 91.3173 15.2173H93.7411ZM86.9261 23.2026C86.7989 23.2967 86.6882 23.4019 86.5941 23.5181C86.5 23.6343 86.4198 23.756 86.3534 23.8833C86.287 24.0106 86.2372 24.1379 86.204 24.2651C86.1708 24.3979 86.1542 24.5225 86.1542 24.6387C86.1542 24.8268 86.2206 25.0067 86.3534 25.1782C86.4862 25.3498 86.6854 25.502 86.951 25.6348C87.2167 25.7676 87.5487 25.8727 87.9471 25.9502C88.3511 26.0277 88.8187 26.0664 89.35 26.0664C89.9144 26.0664 90.418 26.0221 90.8607 25.9336C91.309 25.8451 91.688 25.7261 91.9979 25.5767C92.3134 25.4328 92.5513 25.2695 92.7118 25.0869C92.8778 24.9098 92.9608 24.73 92.9608 24.5474C92.9608 24.3592 92.911 24.196 92.8114 24.0576C92.7173 23.9193 92.579 23.8058 92.3964 23.7173C92.2137 23.6287 91.9924 23.5623 91.7323 23.5181C91.4722 23.4738 91.1789 23.4517 90.8524 23.4517C90.4429 23.4517 90.0306 23.4406 89.6156 23.4185C89.2006 23.4019 88.8132 23.3797 88.4535 23.3521C88.0938 23.3299 87.7784 23.3022 87.5072 23.269C87.236 23.2414 87.0424 23.2192 86.9261 23.2026ZM89.0262 20.0732C89.2642 20.0732 89.4939 20.0207 89.7152 19.9155C89.9366 19.8049 90.1302 19.6554 90.2963 19.4673C90.4678 19.2791 90.6034 19.0605 90.703 18.8115C90.8026 18.557 90.8524 18.283 90.8524 17.9897C90.8524 17.5747 90.7943 17.1901 90.6781 16.8359C90.5674 16.4762 90.4152 16.1663 90.2216 15.9062C90.0279 15.6406 89.801 15.4331 89.5409 15.2837C89.2808 15.1343 89.0069 15.0596 88.7191 15.0596C88.4369 15.0596 88.1906 15.1177 87.9803 15.2339C87.7756 15.3501 87.6068 15.5133 87.474 15.7236C87.3412 15.9284 87.2416 16.1719 87.1752 16.4541C87.1143 16.7308 87.0839 17.0296 87.0839 17.3506C87.0839 17.7324 87.1309 18.0894 87.225 18.4214C87.3191 18.7534 87.4519 19.0439 87.6234 19.293C87.795 19.5365 87.9997 19.7274 88.2377 19.8657C88.4756 20.0041 88.7385 20.0732 89.0262 20.0732ZM100.606 23.269C100.384 23.1584 100.196 23.0034 100.041 22.8042C99.892 22.5994 99.8173 22.367 99.8173 22.1069C99.618 22.2563 99.4216 22.4113 99.2279 22.5718C99.0398 22.7323 98.8322 22.8789 98.6053 23.0117C98.384 23.139 98.135 23.2441 97.8583 23.3271C97.5871 23.4102 97.2717 23.4517 96.912 23.4517C96.58 23.4517 96.2784 23.3963 96.0072 23.2856C95.7416 23.1805 95.5147 23.0339 95.3265 22.8457C95.1439 22.6576 95 22.4334 94.8949 22.1733C94.7953 21.9132 94.7455 21.6338 94.7455 21.335C94.7455 20.9697 94.8174 20.6405 94.9613 20.3472C95.1052 20.0539 95.3016 19.7938 95.5507 19.5669C95.8052 19.3345 96.0985 19.1297 96.4305 18.9526C96.7626 18.77 97.1167 18.6095 97.493 18.4712C97.8693 18.3273 98.2567 18.2 98.6552 18.0894C99.0536 17.9787 99.441 17.8763 99.8173 17.7822V17.251C99.8173 16.8636 99.7896 16.5371 99.7343 16.2715C99.6789 16.0059 99.5931 15.7928 99.4769 15.6323C99.3607 15.4663 99.2113 15.3501 99.0287 15.2837C98.8516 15.2118 98.6385 15.1758 98.3895 15.1758C98.1516 15.1758 97.933 15.2228 97.7338 15.3169C97.5345 15.411 97.3575 15.5382 97.2025 15.6987C97.0531 15.8537 96.9286 16.0391 96.829 16.2549C96.7349 16.4652 96.6713 16.6893 96.6381 16.9272H95.0941C95.1384 16.562 95.2629 16.2355 95.4677 15.9478C95.6779 15.66 95.9408 15.4193 96.2562 15.2256C96.5717 15.0264 96.9286 14.8742 97.327 14.769C97.731 14.6639 98.1488 14.6113 98.5804 14.6113C99.1338 14.6113 99.5987 14.6667 99.975 14.7773C100.351 14.8825 100.653 15.0319 100.88 15.2256C101.107 15.4193 101.267 15.6572 101.361 15.9395C101.461 16.2161 101.511 16.5233 101.511 16.8608V22.1069C101.511 22.367 101.585 22.5994 101.735 22.8042C101.89 23.0034 102.078 23.1584 102.299 23.269H100.606ZM99.8173 18.3218C99.5738 18.3993 99.322 18.4878 99.0619 18.5874C98.8018 18.687 98.5472 18.8005 98.2982 18.9277C98.0492 19.0495 97.8112 19.1823 97.5844 19.3262C97.3575 19.4701 97.1582 19.625 96.9867 19.791C96.8151 19.957 96.6796 20.1313 96.58 20.314C96.4803 20.4966 96.4305 20.6875 96.4305 20.8867C96.4305 21.097 96.4693 21.2962 96.5468 21.4844C96.6242 21.667 96.7266 21.8302 96.8539 21.9741C96.9812 22.1125 97.1278 22.2231 97.2938 22.3062C97.4598 22.3836 97.6314 22.4224 97.8085 22.4224C97.9966 22.4224 98.1765 22.3975 98.348 22.3477C98.5196 22.2979 98.6856 22.2314 98.8461 22.1484C99.0066 22.0599 99.167 21.9603 99.3275 21.8496C99.488 21.7389 99.6512 21.62 99.8173 21.4927V18.3218ZM105.943 23.269H104.25V10.9175L105.453 10.436H105.943V23.269ZM110.625 23.269H108.932V10.9175L110.135 10.436H110.625V23.269ZM117.207 23.4517C116.632 23.4517 116.09 23.3438 115.58 23.1279C115.077 22.9121 114.637 22.6188 114.261 22.248C113.884 21.8773 113.585 21.4429 113.364 20.9448C113.148 20.4412 113.04 19.9072 113.04 19.3428C113.04 18.6621 113.14 18.034 113.339 17.4585C113.538 16.8774 113.821 16.3766 114.186 15.9561C114.551 15.5355 114.988 15.2062 115.497 14.9683C116.012 14.7303 116.585 14.6113 117.216 14.6113C117.769 14.6113 118.278 14.7109 118.743 14.9102C119.208 15.1038 119.606 15.3667 119.938 15.6987C120.276 16.0252 120.536 16.4043 120.719 16.8359C120.907 17.2676 121.001 17.7186 121.001 18.189H114.667C114.667 18.759 114.739 19.2874 114.883 19.7744C115.033 20.2614 115.24 20.682 115.506 21.0361C115.771 21.3903 116.087 21.667 116.452 21.8662C116.817 22.0654 117.218 22.165 117.656 22.165C118.021 22.165 118.372 22.1069 118.71 21.9907C119.047 21.869 119.352 21.7113 119.623 21.5176C119.9 21.3239 120.135 21.1025 120.328 20.8535C120.522 20.6045 120.658 20.3472 120.735 20.0815L121.225 20.2974C121.103 20.7345 120.907 21.144 120.636 21.5259C120.364 21.9077 120.046 22.2425 119.681 22.5303C119.321 22.8125 118.928 23.0366 118.502 23.2026C118.076 23.3687 117.645 23.4517 117.207 23.4517ZM118.884 17.5083C118.884 17.1873 118.826 16.8885 118.71 16.6118C118.599 16.3351 118.444 16.0972 118.245 15.8979C118.046 15.6932 117.813 15.5327 117.548 15.4165C117.282 15.3003 116.997 15.2422 116.693 15.2422C116.438 15.2422 116.195 15.3003 115.962 15.4165C115.73 15.5272 115.522 15.6849 115.34 15.8896C115.157 16.0889 115.005 16.3268 114.883 16.6035C114.767 16.8802 114.698 17.179 114.676 17.5L118.884 17.5083ZM124.828 14.6113H125.085L125.309 16.3462C125.442 16.0916 125.608 15.8592 125.807 15.6489C126.006 15.4386 126.225 15.256 126.463 15.1011C126.706 14.9461 126.961 14.8271 127.226 14.7441C127.498 14.6556 127.772 14.6113 128.048 14.6113C128.297 14.6113 128.541 14.6445 128.779 14.7109C129.022 14.7773 129.249 14.8825 129.459 15.0264L128.928 16.4458C128.817 16.3241 128.701 16.2272 128.579 16.1553C128.458 16.0778 128.333 16.0197 128.206 15.981C128.079 15.9367 127.949 15.909 127.816 15.8979C127.683 15.8869 127.55 15.8813 127.417 15.8813C127.207 15.8813 127 15.9118 126.795 15.9727C126.596 16.0335 126.405 16.1248 126.222 16.2466C126.039 16.3628 125.871 16.515 125.716 16.7031C125.561 16.8857 125.425 17.1016 125.309 17.3506V23.269H123.624V15.0762L124.828 14.6113ZM130.68 25.2778C130.746 25.3055 130.818 25.3415 130.895 25.3857C130.978 25.43 131.067 25.4715 131.161 25.5103C131.261 25.5545 131.369 25.5905 131.485 25.6182C131.601 25.6458 131.731 25.6597 131.875 25.6597C132.052 25.6597 132.218 25.6099 132.373 25.5103C132.528 25.4106 132.669 25.2861 132.796 25.1367C132.924 24.9873 133.037 24.8241 133.137 24.647C133.236 24.4699 133.319 24.3039 133.386 24.1489L133.958 22.8706L129.617 14.769H131.535L134.805 20.9116L137.486 14.769H138.391L134.05 24.7632C133.867 25.1782 133.657 25.5379 133.419 25.8423C133.186 26.1466 132.937 26.3984 132.672 26.5977C132.406 26.7969 132.132 26.9435 131.85 27.0376C131.568 27.1372 131.294 27.187 131.028 27.187C130.829 27.187 130.635 27.1566 130.447 27.0957C130.259 27.0348 130.101 26.9546 129.974 26.855L130.68 25.2778Z" fill="white"/>
<path d="M144.057 13.531V4.50601L135.032 4.50601V13.531H144.057Z" fill="#C23F81"/>
<path d="M142.019 11.493V2.177L132.703 2.177V11.493H142.019Z" fill="#313131"/>
</svg>
