<svg width="198" height="39" viewBox="0 0 198 39" fill="none" xmlns="http://www.w3.org/2000/svg">
<g clip-path="url(#clip0_4_170)">
<path d="M10.266 25.753L14.01 15.205H14.091L17.714 25.753H10.266ZM14.01 -0.000976562L0 36.865H6.361L8.616 30.465H19.365L21.539 36.865H28.101L14.091 -0.000976562H14.01ZM48.271 17.782H54.39C54.2376 16.2288 53.773 14.7223 53.024 13.353C52.3294 12.1 51.3918 10.9982 50.266 10.112C49.1324 9.22922 47.8512 8.55443 46.482 8.11903C45.0309 7.65641 43.516 7.42558 41.993 7.43502C39.9536 7.40295 37.9303 7.80092 36.055 8.60302C34.3548 9.33931 32.8363 10.4387 31.606 11.824C30.3743 13.2313 29.4292 14.8655 28.824 16.635C28.1659 18.559 27.8392 20.5807 27.858 22.614C27.8412 24.6077 28.168 26.5893 28.824 28.472C29.4287 30.2169 30.3728 31.8248 31.602 33.203C32.839 34.5657 34.3569 35.6438 36.051 36.363C37.9298 37.1517 39.9517 37.5422 41.989 37.51C43.6473 37.529 45.296 37.2565 46.86 36.705C48.292 36.1942 49.6063 35.3997 50.724 34.369C51.8442 33.3222 52.747 32.0649 53.381 30.669C54.0753 29.1297 54.4976 27.4816 54.629 25.798H48.513C48.36 27.5265 47.6622 29.1617 46.52 30.468C45.9363 31.0708 45.2297 31.5409 44.4483 31.8465C43.6668 32.1521 42.8288 32.286 41.991 32.239C40.7327 32.2776 39.4855 31.9936 38.368 31.414C37.3991 30.886 36.5707 30.1337 35.952 29.22C35.3232 28.2815 34.8664 27.2386 34.603 26.14C34.3196 24.9872 34.1776 23.8042 34.18 22.617C34.1768 21.3833 34.3188 20.1535 34.603 18.953C34.861 17.8278 35.3179 16.7577 35.952 15.793C36.5661 14.8702 37.3952 14.1104 38.368 13.579C39.4855 12.9995 40.7327 12.7155 41.991 12.754C42.7522 12.751 43.5081 12.8803 44.225 13.136C44.9181 13.381 45.5646 13.7418 46.137 14.203C46.6926 14.6502 47.1689 15.1877 47.546 15.793C47.9225 16.3988 48.1694 17.076 48.271 17.782ZM57.45 8.12003V36.865H63.368V16.695H63.449L70.494 36.865H75.365L82.41 16.494H82.491V36.865H88.409V8.12003H79.509L73.152 27.887H73.071L66.348 8.12003H57.45ZM92.476 8.12003V36.865H114.297V31.547H98.797V24.502H112.724V19.59H98.798V13.43H113.976V8.11602L92.476 8.12003Z" fill="#C23F81"/>
<path d="M129.271 19.9974V21.1991H127.171C127.35 21.4836 127.5 21.7906 127.62 22.12C127.74 22.4494 127.8 22.8051 127.8 23.1869C127.8 23.8233 127.654 24.3923 127.362 24.8939C127.077 25.3881 126.673 25.8073 126.149 26.1517C125.632 26.4961 125.011 26.7582 124.285 26.9379C123.558 27.1176 122.757 27.2074 121.881 27.2074C121.627 27.2074 121.365 27.1924 121.095 27.1625C120.833 27.125 120.593 27.0876 120.376 27.0502C120.219 27.1625 120.096 27.3234 120.006 27.5331C119.916 27.7352 119.871 27.9336 119.871 28.1283C119.871 28.1882 119.886 28.2443 119.916 28.2968C119.953 28.3417 120.032 28.3866 120.152 28.4315C120.272 28.4764 120.444 28.5176 120.668 28.5551C120.9 28.5925 121.215 28.6299 121.612 28.6674C122.009 28.7048 122.499 28.7422 123.083 28.7797C123.674 28.8096 124.386 28.8396 125.217 28.8695C125.98 28.8995 126.62 28.9856 127.137 29.1278C127.654 29.2701 128.069 29.4572 128.384 29.6893C128.706 29.9139 128.934 30.1797 129.069 30.4867C129.203 30.7937 129.271 31.1268 129.271 31.4862C129.271 32.1301 129.099 32.7216 128.754 33.2606C128.417 33.8072 127.927 34.2788 127.283 34.6757C126.639 35.0725 125.857 35.3794 124.936 35.5966C124.015 35.8212 122.971 35.9335 121.803 35.9335C120.754 35.9335 119.837 35.8661 119.051 35.7313C118.273 35.5966 117.621 35.4131 117.097 35.181C116.573 34.9564 116.18 34.6869 115.918 34.3724C115.656 34.0655 115.525 33.736 115.525 33.3842C115.525 33.1296 115.6 32.8713 115.749 32.6093C115.899 32.3472 116.094 32.0852 116.333 31.8231C116.58 31.5686 116.854 31.314 117.153 31.0594C117.46 30.8124 117.771 30.5728 118.085 30.3407C117.636 30.191 117.277 30.0038 117.007 29.7792C116.745 29.5546 116.614 29.3 116.614 29.0155C116.614 28.8134 116.674 28.6 116.794 28.3754C116.921 28.1508 117.086 27.9299 117.288 27.7128C117.498 27.4882 117.741 27.2785 118.018 27.0839C118.302 26.8892 118.602 26.7207 118.916 26.5785C118.542 26.4063 118.201 26.2191 117.894 26.017C117.595 25.8073 117.34 25.5715 117.131 25.3094C116.921 25.0474 116.76 24.7517 116.648 24.4222C116.536 24.0928 116.479 23.7222 116.479 23.3104C116.479 22.6591 116.622 22.0676 116.906 21.536C117.198 20.9969 117.599 20.5402 118.108 20.1659C118.617 19.7841 119.212 19.4921 119.893 19.2899C120.582 19.0803 121.327 18.9755 122.128 18.9755C122.51 18.9755 122.884 19.0054 123.251 19.0653C123.618 19.1177 123.959 19.1926 124.273 19.2899C124.595 19.3872 124.884 19.4958 125.138 19.6156C125.393 19.7354 125.595 19.8627 125.745 19.9974H129.271ZM124.79 30.9471C124.273 30.9471 123.753 30.9397 123.229 30.9247C122.712 30.9097 122.222 30.8872 121.758 30.8573C121.293 30.8348 120.87 30.8049 120.489 30.7675C120.107 30.7375 119.8 30.7076 119.568 30.6776C119.44 30.7749 119.328 30.891 119.231 31.0258C119.141 31.168 119.062 31.314 118.995 31.4637C118.935 31.6135 118.886 31.767 118.849 31.9242C118.819 32.0814 118.804 32.2312 118.804 32.3734C118.804 32.5905 118.883 32.8077 119.04 33.0248C119.205 33.2419 119.448 33.4366 119.77 33.6088C120.099 33.7885 120.507 33.9344 120.994 34.0468C121.488 34.1591 122.061 34.2152 122.712 34.2152C123.416 34.2152 124.045 34.1516 124.599 34.0243C125.161 33.897 125.632 33.736 126.014 33.5414C126.403 33.3542 126.699 33.1446 126.901 32.9125C127.111 32.6879 127.216 32.4745 127.216 32.2723C127.216 31.8456 126.999 31.5162 126.564 31.2841C126.13 31.0594 125.539 30.9471 124.79 30.9471ZM122.286 26.2977C122.54 26.2977 122.787 26.2266 123.027 26.0844C123.266 25.9421 123.48 25.7512 123.667 25.5116C123.854 25.2645 124.004 24.9875 124.116 24.6805C124.228 24.3661 124.285 24.0404 124.285 23.7035C124.285 23.2094 124.221 22.7489 124.094 22.3221C123.966 21.8879 123.79 21.5098 123.566 21.1879C123.349 20.8584 123.094 20.6001 122.802 20.413C122.51 20.2258 122.199 20.1322 121.87 20.1322C121.556 20.1322 121.286 20.2071 121.061 20.3568C120.837 20.5066 120.65 20.7087 120.5 20.9633C120.358 21.2103 120.253 21.5023 120.185 21.8392C120.118 22.1761 120.084 22.5318 120.084 22.9061C120.084 23.3628 120.137 23.7971 120.242 24.2089C120.346 24.6132 120.496 24.9725 120.691 25.287C120.885 25.594 121.118 25.841 121.387 26.0282C121.657 26.2079 121.956 26.2977 122.286 26.2977ZM135.942 24.7704C135.605 24.9126 135.264 25.0848 134.92 25.287C134.575 25.4891 134.265 25.7175 133.988 25.972C133.718 26.2191 133.494 26.4961 133.314 26.8031C133.142 27.1026 133.056 27.4245 133.056 27.7689C133.056 28.1508 133.153 28.4502 133.348 28.6674C133.55 28.8845 133.819 28.993 134.156 28.993C134.441 28.993 134.721 28.9107 134.998 28.746C135.275 28.5738 135.59 28.3529 135.942 28.0834V24.7704ZM129.563 22.12C129.683 21.6408 129.892 21.2066 130.192 20.8173C130.491 20.4205 130.862 20.0873 131.304 19.8177C131.753 19.5407 132.262 19.3274 132.831 19.1776C133.407 19.0279 134.029 18.953 134.695 18.953C135.519 18.953 136.23 19.0279 136.829 19.1776C137.428 19.3274 137.918 19.5407 138.3 19.8177C138.689 20.0873 138.974 20.4167 139.154 20.806C139.341 21.1879 139.434 21.6184 139.434 22.0975V28.6786C139.434 29.1503 139.58 29.5508 139.872 29.8802C140.164 30.2097 140.576 30.483 141.108 30.7001H136.975C136.855 30.7001 136.739 30.6664 136.627 30.599C136.515 30.5316 136.413 30.4455 136.324 30.3407C136.234 30.2284 136.155 30.1086 136.088 29.9813C136.02 29.854 135.972 29.7305 135.942 29.6107C135.732 29.8054 135.534 29.9851 135.347 30.1498C135.159 30.307 134.953 30.4418 134.729 30.5541C134.504 30.6664 134.253 30.7525 133.976 30.8124C133.699 30.8798 133.366 30.9135 132.977 30.9135C132.445 30.9135 131.966 30.8386 131.539 30.6888C131.12 30.5391 130.761 30.3332 130.461 30.0712C130.169 29.8016 129.945 29.4872 129.787 29.1278C129.63 28.7609 129.552 28.3641 129.552 27.9374C129.552 27.2785 129.735 26.7133 130.102 26.2416C130.469 25.7699 130.952 25.3581 131.551 25.0062C132.157 24.6543 132.842 24.3474 133.606 24.0853C134.37 23.8233 135.148 23.5725 135.942 23.3329V22.2098C135.942 21.843 135.904 21.5323 135.829 21.2777C135.755 21.0157 135.65 20.806 135.515 20.6488C135.38 20.4841 135.216 20.368 135.021 20.3007C134.834 20.2258 134.624 20.1884 134.392 20.1884C134.115 20.1884 133.868 20.2408 133.651 20.3456C133.434 20.4504 133.246 20.5927 133.089 20.7723C132.932 20.952 132.805 21.1579 132.707 21.39C132.61 21.6221 132.539 21.8654 132.494 22.12H129.563ZM146.364 30.7001H142.893V14.618L145.319 13.3378H146.364V30.7001ZM153.147 30.7001H149.677V14.618L152.102 13.3378H153.147V30.7001ZM161.66 30.9584C160.843 30.9584 160.076 30.8086 159.357 30.5092C158.639 30.2022 158.013 29.7941 157.482 29.285C156.95 28.7684 156.527 28.1732 156.213 27.4994C155.906 26.8181 155.752 26.0993 155.752 25.3431C155.752 24.4372 155.895 23.5987 156.179 22.8275C156.464 22.0489 156.868 21.375 157.392 20.806C157.916 20.237 158.541 19.7953 159.267 19.4808C160.001 19.1589 160.817 18.9979 161.716 18.9979C162.517 18.9979 163.251 19.1252 163.917 19.3798C164.583 19.6343 165.152 19.9825 165.624 20.4242C166.103 20.8659 166.474 21.3863 166.736 21.9852C166.998 22.5842 167.129 23.2243 167.129 23.9056H159.166C159.196 24.542 159.29 25.1485 159.447 25.725C159.612 26.3015 159.829 26.8106 160.099 27.2523C160.368 27.6866 160.682 28.0347 161.042 28.2968C161.409 28.5513 161.813 28.6786 162.255 28.6786C162.637 28.6786 163.011 28.6149 163.378 28.4877C163.752 28.3529 164.097 28.1732 164.411 27.9486C164.725 27.7165 164.999 27.4507 165.231 27.1512C165.463 26.8443 165.631 26.5149 165.736 26.163L167.511 26.4437C167.331 27.0651 167.043 27.6491 166.646 28.1957C166.257 28.7422 165.796 29.2214 165.265 29.6332C164.74 30.045 164.168 30.3706 163.546 30.6102C162.925 30.8423 162.296 30.9584 161.66 30.9584ZM163.131 22.7152C163.101 22.3783 163.026 22.0713 162.906 21.7943C162.794 21.5098 162.648 21.2665 162.468 21.0643C162.288 20.8622 162.079 20.7087 161.839 20.6039C161.6 20.4916 161.341 20.4354 161.064 20.4354C160.847 20.4354 160.634 20.4916 160.424 20.6039C160.215 20.7087 160.024 20.8622 159.851 21.0643C159.687 21.259 159.544 21.4986 159.425 21.7831C159.312 22.0601 159.238 22.3708 159.2 22.7152H163.131ZM177.618 21.6146C177.461 21.4799 177.315 21.3638 177.18 21.2665C177.053 21.1691 176.925 21.0905 176.798 21.0306C176.671 20.9707 176.536 20.9296 176.394 20.9071C176.259 20.8772 176.106 20.8622 175.933 20.8622C175.694 20.8622 175.458 20.9034 175.226 20.9857C174.994 21.0606 174.777 21.1691 174.575 21.3114C174.372 21.4462 174.189 21.6071 174.024 21.7943C173.867 21.974 173.744 22.1687 173.654 22.3783V30.7001H170.172V20.2445L172.609 18.9642L173.654 20.0873C174.036 19.6905 174.459 19.3723 174.923 19.1327C175.394 18.8931 175.889 18.7733 176.405 18.7733C176.907 18.7733 177.36 18.8781 177.764 19.0878C178.168 19.2899 178.52 19.5145 178.82 19.7616L177.618 21.6146ZM180.549 33.4178C180.624 33.4553 180.721 33.5039 180.841 33.5638C180.968 33.6237 181.103 33.6799 181.245 33.7323C181.395 33.7847 181.552 33.8296 181.717 33.8671C181.882 33.9045 182.047 33.9232 182.211 33.9232C182.346 33.9232 182.481 33.8446 182.616 33.6874C182.75 33.5302 182.878 33.3467 182.997 33.1371C183.117 32.9274 183.222 32.7178 183.312 32.5082C183.409 32.2985 183.48 32.1451 183.525 32.0477L184.525 29.8802L178.921 19.2001H182.604L186.232 26.0844L189.444 19.2001H191.903L185.547 33.0472C185.337 33.4965 185.071 33.9045 184.749 34.2714C184.427 34.6382 184.076 34.9489 183.694 35.2035C183.312 35.4655 182.911 35.6677 182.492 35.8099C182.08 35.9522 181.672 36.0233 181.268 36.0233C180.931 36.0233 180.62 35.9821 180.336 35.8998C180.051 35.8249 179.804 35.7089 179.595 35.5516L180.549 33.4178Z" fill="#74667E"/>
<path d="M197.392 18.5391V6.1731L185.026 6.1731V18.5391H197.392Z" fill="#C23F81"/>
<path d="M194.6 15.7471V2.98206L181.835 2.98206V15.7471H194.6Z" fill="white"/>
</g>
<defs>
<clipPath id="clip0_4_170">
<rect width="197.392" height="38.7" fill="white"/>
</clipPath>
</defs>
</svg>
